<mxfile host="app.diagrams.net" modified="2024-06-16T13:37:17.019Z" agent="Mozilla/5.0 (X11; Linux x86_64) AppleWebKit/537.36 (KHTML, like Gecko) Chrome/122.0.0.0 Safari/537.36" version="24.5.2" etag="3yWRXjx3r18cMIMkXo67" type="github">
  <diagram name="Page-1" id="6E_TeALlnAZx2ZF_H9wD">
    <mxGraphModel>
      <root>
        <mxCell id="0" />
        <mxCell id="1" parent="0" />
      </root>
    </mxGraphModel>
  </diagram>
</mxfile>
